<svg xmlns="http://www.w3.org/2000/svg" width="129.496" height="88.77" viewBox="0 0 129.496 88.77">
  <g id="ilustra_agora" data-name="ilustra agora" transform="translate(-0.23 -8.33)">
    <path id="Caminho_12778" data-name="Caminho 12778" d="M75.1,26.57H63.78L34.05,94.09H45.36l24-54.67,24,54.67h11.32Z" fill="#dedddc"/>
    <path id="Caminho_12779" data-name="Caminho 12779" d="M100.64,97.1H89V97L65.07,42.65,41.12,97.09H29.49l.09-.2L59.35,29.28h11.5v.08ZM89.2,96.82h11L70.67,29.56H59.54L29.93,96.81h11L65.07,42l.13.29Z" fill="#202447"/>
    <path id="Caminho_12780" data-name="Caminho 12780" d="M96.5,73.81a.38.38,0,0,1-.32-.18L89.4,61.41a.35.35,0,0,1,.14-.49.37.37,0,0,1,.49.14l6.42,11.58,5-11.74a.34.34,0,0,1,.22-.2.37.37,0,0,1,.29,0l12,6.7,15.16-14.1a.35.35,0,0,1,.5,0,.36.36,0,0,1,0,.51L114.3,68.13a.35.35,0,0,1-.42.05L102,61.55l-5.17,12a.37.37,0,0,1-.32.21Z" fill="#86bc25"/>
    <path id="Caminho_12781" data-name="Caminho 12781" d="M43.88,48.22a15.4,15.4,0,0,1-4.84,6,6.2,6.2,0,0,1-6.29.7L17.49,48a6.25,6.25,0,0,1-3.64-5.29,15.721,15.721,0,1,1,31.37-2.14,15.42,15.42,0,0,1-1.34,7.65Z" fill="#86bc25"/>
    <path id="Caminho_12782" data-name="Caminho 12782" d="M39.54,28a15.42,15.42,0,0,0,11-8.83,2.29,2.29,0,0,0-.6-2.74c-1.6-1.31-4.54-3.14-7.88-2.64s-6-1.7-7.4-3.2A1.19,1.19,0,0,0,33,10.55h0a1.15,1.15,0,0,0-.26.4,16.36,16.36,0,0,0,1.15,15.36Z" fill="#87bc28"/>
    <path id="Caminho_12783" data-name="Caminho 12783" d="M33.9,25l6,2.74a.84.84,0,0,1,.39,1.09h0a.83.83,0,0,1-1.09.4l-6-2.74a.85.85,0,0,1-.4-1.1h0A.81.81,0,0,1,33.87,25Z" fill="#202447"/>
    <circle id="Elipse_1756" data-name="Elipse 1756" cx="1.25" cy="1.25" r="1.25" transform="translate(31.75 24.38)" fill="#202447"/>
    <path id="Caminho_12784" data-name="Caminho 12784" d="M17.79,23.78a.74.74,0,0,0,.65.2c2.61-.55,4.09.55,5.69,1.69a9.62,9.62,0,0,0,2.69,1.55,7.457,7.457,0,0,0,6-1.15.76.76,0,0,0,.3-.79.59.59,0,0,0-.65-.44c-.14,0-3.69.2-4.94-2.89A6.56,6.56,0,0,0,22.68,18a.66.66,0,0,0-.75.55.64.64,0,0,0,.5.75,5.3,5.3,0,0,1,3.89,3.14,5.62,5.62,0,0,0,3.79,3.39,4.82,4.82,0,0,1-2.79.05A9.82,9.82,0,0,1,25,24.56c-1.64-1.19-3.48-2.61-6.73-1.94a.75.75,0,0,0-.55.8.3.3,0,0,0,.07.36Z" fill="#202447"/>
    <path id="Caminho_12785" data-name="Caminho 12785" d="M39.29,53.46a6.41,6.41,0,0,1-2.61-.56L21.47,46a6.35,6.35,0,0,1-3.73-5.39A15.87,15.87,0,1,1,48,46.09a15.6,15.6,0,0,1-4.89,6.09,6.3,6.3,0,0,1-3.82,1.28Zm-5.7-29.55H32.5A15.6,15.6,0,0,0,18,40.55a6.09,6.09,0,0,0,3.55,5.14L36.8,52.62a6,6,0,0,0,6.13-.68,15.36,15.36,0,0,0,4.79-6h0A15.547,15.547,0,0,0,33.59,23.91Z" fill="#202447"/>
    <path id="Caminho_12786" data-name="Caminho 12786" d="M43.1,27.07l-.05-.3a14.66,14.66,0,0,0,8-4.49A15.52,15.52,0,0,0,54,18a1.47,1.47,0,0,0,.23-.83,4.909,4.909,0,0,0-.09-.77,1.49,1.49,0,0,0-.5-.78A10.85,10.85,0,0,0,48.72,13a7,7,0,0,0-2.88-.15h-.59a4.2,4.2,0,0,0-.51.05.4.4,0,0,1-.16,0c-2.81,0-5.14-1.85-6.6-3.4a1.08,1.08,0,0,0-1.43.15.8.8,0,0,0-.21.42h0a11.339,11.339,0,0,0-.7,1.93,14.81,14.81,0,0,0-.59,3.55,19.47,19.47,0,0,0,.29,4.11c.16.71.32,1.29.5,1.88a10.5,10.5,0,0,0,.69,1.67,5.251,5.251,0,0,1,.24.53c0,.11.1.23.16.35l-.28.13-.16-.37a2.78,2.78,0,0,0-.23-.49,13.719,13.719,0,0,1-.72-1.73c-.18-.6-.33-1.19-.5-1.91a19.53,19.53,0,0,1-.3-4.18,14.91,14.91,0,0,1,.61-3.63A11.9,11.9,0,0,1,36,10.05a1.08,1.08,0,0,1,.29-.56,1.38,1.38,0,0,1,1.85-.17c1.44,1.52,3.69,3.32,6.39,3.32a.42.42,0,0,1,.14,0h.52a1.692,1.692,0,0,0,.56-.06,7.46,7.46,0,0,1,3,.16,11.23,11.23,0,0,1,5,2.68,1.77,1.77,0,0,1,.59.94,4.72,4.72,0,0,1,.11.83,1.78,1.78,0,0,1-.28,1,15.86,15.86,0,0,1-2.91,4.32,15,15,0,0,1-8.16,4.56Z" fill="#202447"/>
    <path id="Caminho_12787" data-name="Caminho 12787" d="M32.19,36.7a1.75,1.75,0,0,0,.3.65c.15.2.35.4.65.74a7.19,7.19,0,0,1,.8.95,2.45,2.45,0,0,1,.35,1,2.38,2.38,0,0,1-3.24,2.49L30.35,44l-.64-.3.7-1.45a3,3,0,0,1-1-.95,3.42,3.42,0,0,1-.59-1.3l.87-.7a3.29,3.29,0,0,0,.6,1.3,2.46,2.46,0,0,0,.94.87,1.5,1.5,0,0,0,1.15.15,1.07,1.07,0,0,0,.75-.65,1,1,0,0,0,.1-.74,1.55,1.55,0,0,0-.3-.65,9.19,9.19,0,0,0-.65-.75,7.31,7.31,0,0,1-.8-1,1.85,1.85,0,0,1-.35-1,2.26,2.26,0,0,1,.25-1.25,2.29,2.29,0,0,1,1.2-1.15,2.34,2.34,0,0,1,1.65,0l.59-1.35.65.3-.59,1.35a6.24,6.24,0,0,1,.84.7,2.73,2.73,0,0,1,.6.9l-.87.75a3.9,3.9,0,0,0-.65-.95,2.08,2.08,0,0,0-.75-.6,1.35,1.35,0,0,0-1-.23,1,1,0,0,0-.69.54A1.18,1.18,0,0,0,32.19,36.7Z" fill="#202447"/>
    <path id="Caminho_3675" data-name="Caminho 3675" d="M60.25,25.37a6,6,0,0,1,.85-3.3,6.51,6.51,0,0,1,3.19-.94,6.14,6.14,0,0,1-3.24-.8,6.66,6.66,0,0,1-.95-3.19,5.85,5.85,0,0,1-.84,3.29,5.87,5.87,0,0,1-3.13.9,6.12,6.12,0,0,1,3.24.8,6,6,0,0,1,.88,3.24Z" fill="#dea100"/>
    <path id="Caminho_3674-2" data-name="Caminho 3674-2" d="M113,77.48a1.19,1.19,0,0,1,.82-1.49h0a1.22,1.22,0,0,1,.6,0,2.2,2.2,0,0,1-1.15-.28,2,2,0,0,1-.33-1.15,2,2,0,0,1-.31,1.18,1.85,1.85,0,0,1-1.12.31,2.2,2.2,0,0,1,1.15.27,2.48,2.48,0,0,1,.34,1.16Z" fill="#dea100"/>
    <path id="Caminho_3674-2-2" data-name="Caminho 3674-2-2" d="M20.82,12.23a1.59,1.59,0,0,1,1.08-2h0a1.85,1.85,0,0,1,.81,0,3,3,0,0,1-1.54-.36,2.78,2.78,0,0,1-.43-1.54,2.66,2.66,0,0,1-.41,1.58,2.48,2.48,0,0,1-1.5.4,3.15,3.15,0,0,1,1.54.36,3.3,3.3,0,0,1,.45,1.56Z" fill="#dea100"/>
    <path id="Caminho_3675-2" data-name="Caminho 3675-2" d="M3,48.07a3.89,3.89,0,0,1,.51-2.13,4.3,4.3,0,0,1,2.06-.64,4,4,0,0,1-2.1-.51,4.4,4.4,0,0,1-.63-2.06,3.65,3.65,0,0,1-.55,2.14,3.42,3.42,0,0,1-2.06.56,4,4,0,0,1,2.1.51A3.61,3.61,0,0,1,3,48.07Z" fill="#dea100"/>
    <path id="Caminho_3675-2-2" data-name="Caminho 3675-2-2" d="M127,50.25a3.32,3.32,0,0,1,.41-1.63,3.61,3.61,0,0,1,1.55-.49,3.53,3.53,0,0,1-1.59-.37,3.74,3.74,0,0,1-.49-1.59,3.21,3.21,0,0,1-.41,1.63,3,3,0,0,1-1.55.43,3.61,3.61,0,0,1,1.59.37,2.85,2.85,0,0,1,.49,1.65Z" fill="#dea100"/>
    <path id="Caminho_3675-3" data-name="Caminho 3675-3" d="M82,67.07a3.4,3.4,0,0,1,.43-1.71,4,4,0,0,1,1.63-.52,3.59,3.59,0,0,1-1.67-.38,3.79,3.79,0,0,1-.51-1.67,3.31,3.31,0,0,1-.44,1.71,3.22,3.22,0,0,1-1.63.47,3.69,3.69,0,0,1,1.67.39A2.9,2.9,0,0,1,82,67.07Z" fill="#dea100"/>
    <rect id="Retângulo_8575" data-name="Retângulo 8575" width="9.8" height="18.3" rx="1.58" transform="translate(86.85 27.96)" fill="#1c454c"/>
    <rect id="Retângulo_8576" data-name="Retângulo 8576" width="9.8" height="29.03" rx="1.58" transform="translate(110.31 17.49)" fill="#1c454c"/>
    <rect id="Retângulo_8577" data-name="Retângulo 8577" width="9.8" height="25.33" rx="1.58" transform="translate(98.68 20.93)" fill="#1c454c"/>
    <path id="Caminho_12788" data-name="Caminho 12788" d="M93.76,45.21H87.11a1.72,1.72,0,0,1-1.72-1.71V28.34a1.73,1.73,0,0,1,1.72-1.72h6.65a1.73,1.73,0,0,1,1.72,1.72V43.5A1.72,1.72,0,0,1,93.76,45.21Zm-6.65-18.3a1.44,1.44,0,0,0-1.44,1.43V43.5a1.44,1.44,0,0,0,1.44,1.43h6.65a1.43,1.43,0,0,0,1.43-1.43V28.34a1.43,1.43,0,0,0-1.43-1.43Z" fill="#202447"/>
    <path id="Caminho_12789" data-name="Caminho 12789" d="M117.06,45.21h-6.65a1.72,1.72,0,0,1-1.72-1.71V17.61a1.72,1.72,0,0,1,1.72-1.71h6.65a1.72,1.72,0,0,1,1.71,1.71V43.5a1.72,1.72,0,0,1-1.71,1.71Zm-6.65-29a1.43,1.43,0,0,0-1.41,1.4V43.5a1.43,1.43,0,0,0,1.44,1.43h6.65a1.43,1.43,0,0,0,1.43-1.43V17.61a1.43,1.43,0,0,0-1.43-1.43Z" fill="#202447"/>
    <path id="Caminho_12790" data-name="Caminho 12790" d="M105.59,45.21H98.94a1.72,1.72,0,0,1-1.71-1.71V21.31a1.72,1.72,0,0,1,1.71-1.71h6.65a1.72,1.72,0,0,1,1.72,1.71V43.5A1.72,1.72,0,0,1,105.59,45.21ZM98.94,19.88a1.43,1.43,0,0,0-1.43,1.43V43.5a1.43,1.43,0,0,0,1.43,1.43h6.65A1.44,1.44,0,0,0,107,43.5V21.31a1.44,1.44,0,0,0-1.44-1.43Z" fill="#202447"/>
  </g>
</svg>
